<svg width="54" height="46" viewBox="0 0 54 46" fill="none" xmlns="http://www.w3.org/2000/svg">
<g clip-path="url(#clip0_425_55)">
<path d="M50.1608 39.2917C50.1608 39.8604 49.9911 40.4162 49.6731 40.889C49.3551 41.3618 48.9032 41.7303 48.3744 41.9479C47.8456 42.1655 47.2637 42.2224 46.7024 42.1115C46.141 42.0006 45.6254 41.7268 45.2207 41.3247C44.8159 40.9226 44.5403 40.4103 44.4287 39.8526C44.317 39.2949 44.3743 38.7169 44.5933 38.1915C44.8124 37.6662 45.1833 37.2172 45.6592 36.9013C46.1351 36.5854 46.6946 36.4167 47.2669 36.4167C48.0344 36.4167 48.7705 36.7197 49.3132 37.2588C49.8559 37.798 50.1608 38.5293 50.1608 39.2917Z" fill="#262626"/>
<path d="M15.2797 1.24382e-05C14.1959 0.000379508 13.1396 0.339239 12.2602 0.96867C11.3809 1.5981 10.7229 2.48625 10.3794 3.50751C10.3661 3.54434 10.3619 3.58382 10.3672 3.6226C10.3725 3.66139 10.3871 3.69833 10.4098 3.73031C10.4325 3.76228 10.4627 3.78834 10.4977 3.80628C10.5327 3.82422 10.5715 3.8335 10.6109 3.83335H14.755L10.2675 17.25H10.2521L9.60772 19.1667H9.62509L9.53055 19.4484L9.51705 19.4925L9.04631 20.8917C8.38441 22.8629 8.34336 24.9878 8.92862 26.9828C8.56579 27.1224 8.25391 27.3676 8.0339 27.6864C7.81389 28.0052 7.69605 28.3827 7.69583 28.7692V29.762C5.63245 29.9948 3.72142 30.9547 2.30945 32.4675C0.897478 33.9804 0.0781131 35.9459 5.7426e-06 38.0075C-0.000250298 38.0504 0.00805798 38.0929 0.0244495 38.1325C0.0408411 38.1721 0.0649899 38.2082 0.0954963 38.2385C0.126003 38.2688 0.16226 38.2928 0.202167 38.3091C0.242075 38.3253 0.284838 38.3336 0.32798 38.3333H1.99679C1.87518 39.2061 1.9278 40.0941 2.15163 40.9467C2.37547 41.7993 2.76614 42.5997 3.30135 43.3023C3.83655 44.0048 4.50581 44.5958 5.27091 45.0414C6.036 45.487 6.88195 45.7786 7.76046 45.8994C8.63896 46.0202 9.53282 45.9679 10.391 45.7456C11.2492 45.5232 12.0548 45.1351 12.762 44.6033C13.4692 44.0716 14.0641 43.4067 14.5126 42.6466C14.9611 41.8865 15.2546 41.0461 15.3762 40.1733L15.4148 40.25H40.5627C40.7152 41.2986 41.1156 42.2964 41.7309 43.1617C42.3463 44.027 43.1593 44.7352 44.1032 45.2283C45.0471 45.7214 46.0952 45.9853 47.1615 45.9985C48.2279 46.0117 49.2823 45.7738 50.2383 45.3043C51.1943 44.8347 52.0247 44.1469 52.6616 43.2971C53.2986 42.4473 53.7238 41.4597 53.9026 40.4152C54.0814 39.3708 54.0086 38.299 53.6902 37.2879C53.3718 36.2767 52.8168 35.3548 52.0707 34.5978V32.5833C51.5591 32.5833 51.0684 32.3814 50.7066 32.022C50.3447 31.6625 50.1415 31.175 50.1415 30.6667V27.4275C50.1425 27.2702 50.2058 27.1197 50.3178 27.0085C50.4297 26.8973 50.5812 26.8344 50.7396 26.8333H52.09V24.9167V9.44918C52.0895 8.20683 51.8425 6.97675 51.3632 5.82931C50.8838 4.68186 50.1815 3.63954 49.2963 2.76195C48.4112 1.88436 47.3606 1.18872 46.2046 0.714808C45.0487 0.240892 43.81 -0.00200284 42.5595 1.24382e-05H15.2797ZM16.7846 3.83335H17.3633V12.7842C17.3644 13.3709 17.2488 13.9521 17.0232 14.4944C16.7977 15.0367 16.4666 15.5294 16.049 15.9443C15.6314 16.3591 15.1354 16.6881 14.5896 16.9121C14.0438 17.1362 13.4588 17.251 12.8682 17.25H12.299L16.7846 3.83335ZM42.4052 3.83335V24.9167H39.4727C38.7208 24.9177 38.0001 25.2149 37.4684 25.743C36.9368 26.2712 36.6377 26.9872 36.6367 27.7342V34.5H32.7781V3.83335H42.4052ZM21.1833 3.83335H30.8489V24.9167H27.8971C27.1453 24.9177 26.4245 25.2149 25.8929 25.743C25.3612 26.2712 25.0621 26.9872 25.0611 27.7342V34.5H21.2026V19.1667H21.1833V3.83335ZM3.85853 39.2917C3.85836 38.9698 3.89068 38.6488 3.95499 38.3333H5.95177C5.79775 38.7669 5.75065 39.2309 5.81443 39.6863C5.87822 40.1418 6.05102 40.5753 6.31834 40.9507C6.58566 41.326 6.9397 41.6322 7.35076 41.8435C7.76181 42.0548 8.21789 42.1651 8.68071 42.1651C9.14354 42.1651 9.59962 42.0548 10.0107 41.8435C10.4217 41.6322 10.7758 41.326 11.0431 40.9507C11.3104 40.5753 11.4832 40.1418 11.547 39.6863C11.6108 39.2309 11.5637 38.7669 11.4097 38.3333H13.4084C13.5425 38.9894 13.5367 39.6661 13.3914 40.3198C13.2462 40.9736 12.9646 41.5898 12.565 42.1288C12.1653 42.6678 11.6564 43.1176 11.071 43.4492C10.4857 43.7809 9.83684 43.987 9.1664 44.0543C8.49595 44.1216 7.81875 44.0485 7.17846 43.8399C6.53817 43.6312 5.94899 43.2916 5.4489 42.8429C4.94882 42.3942 4.54892 41.8463 4.275 41.2347C4.00108 40.623 3.8592 39.9611 3.85853 39.2917ZM9.62702 32.6217V26.8525H12.5402C13.3103 26.8525 14.0488 27.1564 14.5933 27.6974C15.1378 28.2384 15.4437 28.9721 15.4437 29.7371C15.4437 30.5021 15.1378 31.2358 14.5933 31.7768C14.0488 32.3178 13.3103 32.6217 12.5402 32.6217H9.62702ZM47.2476 44.0833C46.2937 44.0833 45.3612 43.8023 44.568 43.2758C43.7748 42.7493 43.1566 42.0009 42.7916 41.1254C42.4265 40.2498 42.331 39.2864 42.5171 38.3569C42.7032 37.4274 43.1626 36.5736 43.8371 35.9035C44.5116 35.2333 45.371 34.777 46.3066 34.5921C47.2422 34.4072 48.212 34.5021 49.0933 34.8648C49.9747 35.2274 50.7279 35.8416 51.2579 36.6296C51.7879 37.4176 52.0707 38.344 52.0707 39.2917C52.0707 40.5625 51.5626 41.7813 50.6581 42.6799C49.7536 43.5785 48.5268 44.0833 47.2476 44.0833Z" fill="#262626"/>
</g>
<defs>
<clipPath id="clip0_425_55">
<rect width="54" height="46" fill="white"/>
</clipPath>
</defs>
</svg>
