<svg width="52" height="52" viewBox="0 0 52 52" fill="none" xmlns="http://www.w3.org/2000/svg">
<circle cx="26.0001" cy="26" r="26" fill="#212121"/>
<path d="M34.5492 32.3604L33.2982 33.614C32.8397 34.0631 32.297 34.4168 31.7013 34.6545C31.1056 34.8922 30.4689 35.0093 29.8278 34.999C28.2119 34.9786 26.67 34.317 25.5402 33.159L19.8402 27.4472C17.5703 25.1827 17.3787 21.695 19.3863 19.6731L20.6776 18.4599C20.8395 18.2991 21.0343 18.1751 21.2484 18.0966C21.4626 18.0181 21.6911 17.9869 21.9185 18.005C22.3616 18.0391 22.7774 18.233 23.0887 18.5509L25.9437 21.4119C26.2728 21.7197 26.467 22.1454 26.484 22.5962C26.501 23.0469 26.3394 23.4861 26.0345 23.8179L25.409 24.4447C25.4117 24.5412 25.4395 24.6353 25.4898 24.7177L28.3448 27.5786C28.4658 27.6898 28.597 27.6898 28.6172 27.6595L29.2427 27.0327C29.5738 26.7272 30.0121 26.5653 30.4619 26.5824C30.9117 26.5994 31.3365 26.794 31.6437 27.1237L34.4987 29.9847C34.8108 30.2979 34.9903 30.7198 34.9997 31.1624C35.0091 31.605 34.8477 32.0341 34.5492 32.3604Z" fill="#FAE070"/>
</svg>
