<svg width="52" height="52" viewBox="0 0 52 52" fill="none" xmlns="http://www.w3.org/2000/svg">
<path d="M26.0001 0C20.8578 0 15.8309 1.52487 11.5552 4.38179C7.27957 7.23871 3.94708 11.2994 1.9792 16.0502C0.0113264 20.8011 -0.50356 26.0288 0.499655 31.0723C1.50287 36.1159 3.97913 40.7486 7.6153 44.3848C11.2515 48.0209 15.8842 50.4972 20.9277 51.5004C25.9712 52.5036 31.199 51.9887 35.9498 50.0209C40.7007 48.053 44.7614 44.7205 47.6183 40.4448C50.4752 36.1691 52.0001 31.1423 52.0001 26C52.0001 19.1044 49.2608 12.4912 44.3848 7.61522C39.5089 2.73928 32.8957 0 26.0001 0ZM36.4101 28.41L27.4101 37.41C27.3207 37.5014 27.2236 37.585 27.1201 37.66C27.1101 37.66 27.1001 37.66 27.1001 37.67C27.0012 37.7402 26.8936 37.7973 26.7801 37.84C26.7701 37.84 26.7601 37.85 26.7501 37.85C26.6386 37.9016 26.521 37.9386 26.4001 37.96H26.3801C26.1295 38.0133 25.8706 38.0133 25.6201 37.96H25.6001C25.4792 37.9386 25.3615 37.9016 25.2501 37.85C25.2401 37.85 25.2301 37.84 25.2201 37.84C25.1065 37.7973 24.999 37.7402 24.9001 37.67C24.9001 37.66 24.8901 37.66 24.8801 37.66C24.7765 37.585 24.6795 37.5014 24.5901 37.41L15.5901 28.41C15.4049 28.2248 15.258 28.005 15.1578 27.7631C15.0576 27.5212 15.006 27.2619 15.006 27C15.006 26.7381 15.0576 26.4788 15.1578 26.2369C15.258 25.995 15.4049 25.7752 15.5901 25.59C15.964 25.216 16.4712 25.006 17.0001 25.006C17.2619 25.006 17.5212 25.0575 17.7632 25.1577C18.0051 25.258 18.2249 25.4048 18.4101 25.59L24.0001 31.18V16C24.0001 15.4696 24.2108 14.9609 24.5859 14.5858C24.9609 14.2107 25.4696 14 26.0001 14C26.5305 14 27.0392 14.2107 27.4143 14.5858C27.7894 14.9609 28.0001 15.4696 28.0001 16V31.18L33.5901 25.59C33.7752 25.4048 33.9951 25.258 34.237 25.1577C34.4789 25.0575 34.7382 25.006 35.0001 25.006C35.2619 25.006 35.5212 25.0575 35.7632 25.1577C36.0051 25.258 36.2249 25.4048 36.4101 25.59C36.5952 25.7752 36.7421 25.995 36.8423 26.2369C36.9425 26.4788 36.9941 26.7381 36.9941 27C36.9941 27.2619 36.9425 27.5212 36.8423 27.7631C36.7421 28.005 36.5952 28.2248 36.4101 28.41Z" fill="#222222"/>
</svg>
