<svg width="20" height="16" viewBox="0 0 20 16" fill="none" xmlns="http://www.w3.org/2000/svg">
<path d="M2.61184 15.3864C2.10415 15.3864 1.66969 15.2058 1.30846 14.8446C0.947225 14.4833 0.766301 14.0486 0.765686 13.5403V2.46334C0.765686 1.95565 0.946609 1.52119 1.30846 1.15996C1.6703 0.798726 2.10476 0.617803 2.61184 0.617188H17.3811C17.8888 0.617188 18.3235 0.79811 18.6854 1.15996C19.0472 1.5218 19.2278 1.95626 19.2272 2.46334V13.5403C19.2272 14.048 19.0466 14.4827 18.6854 14.8446C18.3242 15.2064 17.8894 15.387 17.3811 15.3864H2.61184ZM9.99646 8.76334C10.0734 8.76334 10.1543 8.75165 10.2392 8.72826C10.3241 8.70488 10.4048 8.67042 10.4811 8.62488L17.0118 4.54026C17.1349 4.46334 17.2272 4.36734 17.2888 4.25226C17.3503 4.13719 17.3811 4.01011 17.3811 3.87103C17.3811 3.56334 17.2503 3.33257 16.9888 3.17873C16.7272 3.02488 16.458 3.03257 16.1811 3.2018L9.99646 7.07873L3.81184 3.2018C3.53492 3.03257 3.26569 3.02888 3.00415 3.19073C2.74261 3.35257 2.61184 3.57934 2.61184 3.87103C2.61184 4.02488 2.64261 4.15965 2.70415 4.27534C2.76569 4.39103 2.85799 4.47934 2.98107 4.54026L9.51184 8.62488C9.58876 8.67103 9.66969 8.7058 9.75461 8.72919C9.83953 8.75257 9.92015 8.76396 9.99646 8.76334Z" fill="#212121"/>
</svg>
