<svg width="26" height="60" viewBox="0 0 26 60" fill="none" xmlns="http://www.w3.org/2000/svg">
<g clip-path="url(#clip0_425_35)">
<path d="M13.0703 13.838C14.769 13.8265 16.395 13.1231 17.5962 11.8803C18.7974 10.6374 19.4772 8.95497 19.4883 7.1973C19.4883 5.43609 18.8121 3.74701 17.6085 2.50165C16.4049 1.25628 14.7725 0.556641 13.0703 0.556641C11.3682 0.556641 9.73573 1.25628 8.53213 2.50165C7.32854 3.74701 6.65236 5.43609 6.65236 7.1973C6.66347 8.95497 7.34321 10.6374 8.54441 11.8803C9.74561 13.1231 11.3716 13.8265 13.0703 13.838ZM19.125 15.5921H7.01564C5.23509 15.582 3.52292 16.3009 2.25257 17.5918C0.982222 18.8828 0.256759 20.6411 0.234408 22.4834V36.3912C0.231155 36.6553 0.279048 36.9175 0.375264 37.1623C0.471481 37.407 0.614074 37.6294 0.794639 37.8162C0.975204 38.003 1.19009 38.1506 1.42662 38.2501C1.66316 38.3497 1.91657 38.3992 2.1719 38.3959H5.9258L7.98439 57.5661C8.04276 58.0648 8.26886 58.5265 8.62309 58.8701C8.97731 59.2137 9.43709 59.4174 9.92188 59.4455H16.0976C16.5892 59.4395 17.0607 59.2432 17.4193 58.8953C17.7779 58.5475 17.9976 58.0732 18.0351 57.5661L19.9726 38.3959H23.8476C24.103 38.3992 24.3564 38.3497 24.5929 38.2501C24.8294 38.1506 25.0443 38.003 25.2249 37.8162C25.4055 37.6294 25.548 37.407 25.6443 37.1623C25.7405 36.9175 25.7884 36.6553 25.7851 36.3912V22.4834C25.798 21.5747 25.6346 20.6726 25.3044 19.8305C24.9743 18.9884 24.4842 18.2234 23.8631 17.5808C23.2421 16.9382 22.5028 16.4311 21.6889 16.0895C20.875 15.7479 20.0032 15.5788 19.125 15.5921Z" fill="#262626"/>
</g>
<defs>
<clipPath id="clip0_425_35">
<rect width="25.5556" height="58.8889" fill="white" transform="translate(0.234375 0.556641)"/>
</clipPath>
</defs>
</svg>
