<svg width="17" height="17" viewBox="0 0 17 17" fill="none" xmlns="http://www.w3.org/2000/svg">
<path d="M15.8855 13.8729L14.7308 15.0301C14.3076 15.4447 13.8066 15.7711 13.2567 15.9906C12.7069 16.21 12.1191 16.3181 11.5273 16.3085C10.0357 16.2898 8.61242 15.679 7.56956 14.6101L2.30806 9.33769C0.212775 7.24738 0.0358392 4.02792 1.889 2.16156L3.08099 1.04175C3.23049 0.89325 3.41023 0.778853 3.60792 0.706378C3.80561 0.633903 4.01658 0.605059 4.22641 0.62182C4.63549 0.653236 5.01931 0.832281 5.30665 1.12574L7.94206 3.76663C8.24577 4.05077 8.42503 4.44373 8.44073 4.8598C8.45643 5.27587 8.3073 5.68127 8.02587 5.98759L7.4485 6.56616C7.45097 6.65522 7.47665 6.74208 7.523 6.81812L10.1584 9.45901C10.2702 9.56166 10.3912 9.56166 10.4098 9.53366L10.9872 8.95509C11.2929 8.67307 11.6975 8.52363 12.1127 8.53937C12.5279 8.5551 12.92 8.73473 13.2036 9.03908L15.839 11.68C16.1271 11.9691 16.2927 12.3586 16.3014 12.7671C16.3101 13.1756 16.1611 13.5717 15.8855 13.8729Z" fill="#212121"/>
</svg>
