<svg width="52" height="52" viewBox="0 0 52 52" fill="none" xmlns="http://www.w3.org/2000/svg">
<circle cx="26" cy="26" r="26" fill="#212121"/>
<path d="M24.115 35.811C24.721 36.311 25.353 36.768 26 37.214C26.6484 36.7739 27.2773 36.3058 27.885 35.811C28.898 34.9792 29.8513 34.0773 30.738 33.112C32.782 30.877 35 27.637 35 24C35 22.8181 34.7672 21.6478 34.3149 20.5558C33.8626 19.4639 33.1997 18.4718 32.364 17.636C31.5282 16.8003 30.5361 16.1374 29.4442 15.6851C28.3522 15.2328 27.1819 15 26 15C24.8181 15 23.6478 15.2328 22.5558 15.6851C21.4639 16.1374 20.4718 16.8003 19.636 17.636C18.8003 18.4718 18.1374 19.4639 17.6851 20.5558C17.2328 21.6478 17 22.8181 17 24C17 27.637 19.218 30.876 21.262 33.112C22.1486 34.0777 23.102 34.9789 24.115 35.811ZM26 27.25C25.138 27.25 24.3114 26.9076 23.7019 26.2981C23.0924 25.6886 22.75 24.862 22.75 24C22.75 23.138 23.0924 22.3114 23.7019 21.7019C24.3114 21.0924 25.138 20.75 26 20.75C26.862 20.75 27.6886 21.0924 28.2981 21.7019C28.9076 22.3114 29.25 23.138 29.25 24C29.25 24.862 28.9076 25.6886 28.2981 26.2981C27.6886 26.9076 26.862 27.25 26 27.25Z" fill="#FAE070"/>
</svg>
