<svg width="52" height="52" viewBox="0 0 52 52" fill="none" xmlns="http://www.w3.org/2000/svg">
<path d="M26.0001 0C20.8578 0 15.8309 1.52487 11.5552 4.38179C7.27957 7.2387 3.94708 11.2993 1.9792 16.0502C0.0113264 20.8011 -0.50356 26.0288 0.499655 31.0723C1.50287 36.1158 3.97913 40.7486 7.61529 44.3848C11.2515 48.0209 15.8842 50.4972 20.9277 51.5004C25.9712 52.5036 31.199 51.9887 35.9498 50.0209C40.7007 48.053 44.7614 44.7205 47.6183 40.4448C50.4752 36.1691 52.0001 31.1423 52.0001 26C51.9802 19.1105 49.2345 12.5088 44.3629 7.6372C39.4912 2.76556 32.8896 0.0198932 26.0001 0ZM36.9201 21.58L24.4401 34.06C24.2053 34.3064 23.9229 34.5025 23.61 34.6365C23.2972 34.7705 22.9604 34.8396 22.6201 34.8396C22.2797 34.8396 21.9429 34.7705 21.6301 34.6365C21.3173 34.5025 21.0349 34.3064 20.8001 34.06L15.0801 28.34C14.6054 27.8556 14.3411 27.2035 14.3445 26.5254C14.3479 25.8472 14.6188 25.1978 15.0984 24.7183C15.5779 24.2388 16.2273 23.9678 16.9055 23.9644C17.5836 23.961 18.2357 24.2253 18.7201 24.7L22.6201 28.6L33.2801 17.94C33.7644 17.4653 34.4165 17.201 35.0947 17.2044C35.7728 17.2078 36.4222 17.4788 36.9018 17.9583C37.3813 18.4378 37.6522 19.0872 37.6556 19.7654C37.6591 20.4435 37.3947 21.0956 36.9201 21.58Z" fill="#212121"/>
</svg>
