<svg width="30" height="30" viewBox="0 0 30 30" fill="none" xmlns="http://www.w3.org/2000/svg">
<g clip-path="url(#clip0_425_191)">
<path d="M29.7083 26.0641L26.2283 29.5463C26.0915 29.6835 25.9177 29.778 25.7283 29.8183C24.9899 29.9488 24.2409 30.0091 23.4913 29.9983C20.2263 29.9983 13.8523 29.0243 7.41325 22.5818C-1.61875 13.5462 0.101251 4.63865 0.181251 4.26363C0.221569 4.07412 0.316064 3.9004 0.453251 3.76359L3.93325 0.281361C4.12431 0.100677 4.37729 0 4.64025 0C4.90321 0 5.15619 0.100677 5.34725 0.281361L10.0793 5.01468C10.6256 5.5606 10.9736 6.27364 11.0678 7.04025C11.1621 7.80685 10.9971 8.58295 10.5993 9.24496L9.26925 11.4631C10.3335 13.4111 11.6476 15.2118 13.1783 16.8195C14.7851 18.3509 16.5854 19.6654 18.5333 20.7297L20.7503 19.3996C21.4117 19.0016 22.1874 18.8366 22.9536 18.9311C23.7198 19.0255 24.4322 19.3739 24.9773 19.9207L29.7093 24.654C29.8955 24.8414 30 25.0948 30 25.359C30 25.6232 29.8945 25.8767 29.7083 26.0641ZM16.0013 13.9973H20.0013C20.2665 13.9973 20.5208 13.8919 20.7084 13.7044C20.8959 13.5168 21.0013 13.2624 21.0013 12.9972C21.0013 12.732 20.8959 12.4776 20.7084 12.2901C20.5208 12.1025 20.2665 11.9971 20.0013 11.9971H17.0173C17.0416 11.8585 17.0954 11.7268 17.1751 11.6108C17.2548 11.4949 17.3586 11.3974 17.4793 11.3251C19.0853 10.359 21.0013 8.82493 21.0013 6.99681C21.0013 6.20111 20.6852 5.43799 20.1226 4.87535C19.56 4.3127 18.7969 3.99661 18.0013 3.99661C17.2056 3.99661 16.4425 4.3127 15.8799 4.87535C15.3173 5.43799 15.0013 6.20111 15.0013 6.99681C15.0013 7.26204 15.1066 7.51641 15.2941 7.70396C15.4817 7.89151 15.736 7.99688 16.0013 7.99688C16.2665 7.99688 16.5208 7.89151 16.7084 7.70396C16.8959 7.51641 17.0013 7.26204 17.0013 6.99681C17.0013 6.73158 17.1066 6.4772 17.2941 6.28966C17.4817 6.10211 17.736 5.99674 18.0013 5.99674C18.2665 5.99674 18.5208 6.10211 18.7084 6.28966C18.8959 6.4772 19.0013 6.73158 19.0013 6.99681C19.0013 7.65285 18.0013 8.67892 16.4483 9.61098C16.0073 9.87873 15.6425 10.2554 15.3891 10.7048C15.1357 11.1542 15.0022 11.6612 15.0013 12.1772V12.9972C15.0013 13.2624 15.1066 13.5168 15.2941 13.7044C15.4817 13.8919 15.736 13.9973 16.0013 13.9973ZM25.0013 9.99701H26.0013V12.9972C26.0013 13.2624 26.1066 13.5168 26.2941 13.7044C26.4817 13.8919 26.736 13.9973 27.0013 13.9973C27.2665 13.9973 27.5208 13.8919 27.7084 13.7044C27.8959 13.5168 28.0013 13.2624 28.0013 12.9972V4.99668C28.0013 4.73144 27.8959 4.47707 27.7084 4.28952C27.5208 4.10197 27.2665 3.99661 27.0013 3.99661C26.736 3.99661 26.4817 4.10197 26.2941 4.28952C26.1066 4.47707 26.0013 4.73144 26.0013 4.99668V7.99688H25.0013C24.736 7.99688 24.4817 7.89151 24.2941 7.70396C24.1066 7.51641 24.0013 7.26204 24.0013 6.99681V4.99668C24.0013 4.73144 23.8959 4.47707 23.7084 4.28952C23.5208 4.10197 23.2665 3.99661 23.0013 3.99661C22.736 3.99661 22.4817 4.10197 22.2941 4.28952C22.1066 4.47707 22.0013 4.73144 22.0013 4.99668V6.99681C22.0013 7.79251 22.3173 8.55562 22.8799 9.11827C23.4425 9.68092 24.2056 9.99701 25.0013 9.99701Z" fill="white"/>
</g>
<defs>
<clipPath id="clip0_425_191">
<rect width="30" height="30" fill="white"/>
</clipPath>
</defs>
</svg>
