<svg width="32" height="38" viewBox="0 0 32 38" fill="none" xmlns="http://www.w3.org/2000/svg">
<g clip-path="url(#clip0_425_180)">
<path d="M10.227 0.00894122C10.4399 0.0115577 10.6475 0.0761666 10.8243 0.194803C11.0276 0.337331 11.1928 0.527397 11.3055 0.748496C11.4181 0.969595 11.4748 1.21498 11.4706 1.46305V1.47654C11.469 1.59819 11.5001 1.71811 11.5608 1.82359C11.6215 1.92908 11.7094 2.01626 11.8154 2.0761C11.854 2.09865 11.895 2.1169 11.9376 2.13041C11.9791 2.14452 12.0218 2.15448 12.0652 2.16022H12.201C12.2245 2.16217 12.248 2.15746 12.2689 2.14664C12.2914 2.14266 12.3136 2.13728 12.3354 2.13041L12.3558 2.11683C12.3693 2.11683 12.3829 2.10326 12.3965 2.10326C12.4163 2.09308 12.4367 2.084 12.4576 2.0761C12.4982 2.05438 12.5364 2.02846 12.5716 1.99878L12.6164 1.95672C12.6804 1.89266 12.7309 1.81647 12.765 1.73261C12.799 1.64875 12.8159 1.55892 12.8147 1.46843V1.45485C12.8148 1.32463 12.8303 1.19491 12.8608 1.06831C12.9417 0.708675 13.1568 0.393346 13.4623 0.186607C13.6381 0.0667659 13.8461 0.00264925 14.059 0.00264925C14.2718 0.00264925 14.4798 0.0667659 14.6556 0.186607C14.8593 0.329213 15.025 0.519482 15.1381 0.740797C15.2512 0.962111 15.3084 1.20779 15.3046 1.45626V1.46984C15.3032 1.59126 15.3345 1.71076 15.3952 1.81598C15.4558 1.9212 15.5436 2.00825 15.6495 2.06799C15.6883 2.09039 15.7292 2.10904 15.7716 2.12362C15.8133 2.13711 15.856 2.14705 15.8993 2.15343H15.9685C16.0142 2.15559 16.0599 2.15101 16.1043 2.13985C16.1268 2.13587 16.149 2.13049 16.1708 2.12362L16.1925 2.11005C16.2061 2.11005 16.2197 2.09647 16.2319 2.09647C16.2941 2.0719 16.3522 2.03809 16.4043 1.99613L16.4491 1.9554C16.5133 1.89144 16.5641 1.81532 16.5984 1.73145C16.6326 1.64758 16.6497 1.55769 16.6487 1.46711V1.45353C16.6447 1.20531 16.7015 0.959921 16.8141 0.738644C16.9268 0.517368 17.0918 0.326949 17.2949 0.183957C17.4708 0.0641167 17.6787 0 17.8916 0C18.1045 0 18.3124 0.0641167 18.4883 0.183957C18.6905 0.32562 18.8553 0.514115 18.9685 0.733346C19.0818 0.952576 19.1402 1.19598 19.1386 1.44268C19.1386 1.45625 19.1386 1.45623 19.1386 1.46437C19.1375 1.63162 19.1983 1.79337 19.3094 1.91855C19.4204 2.04374 19.5738 2.12352 19.7401 2.14258H19.8093C19.8933 2.14282 19.9766 2.12762 20.055 2.09779H20.0876C20.1034 2.08852 20.1203 2.08124 20.1379 2.0761C20.1582 2.06254 20.1786 2.05445 20.1962 2.04224C20.2914 1.97967 20.3692 1.89421 20.4226 1.79371C20.476 1.6932 20.5032 1.58087 20.5017 1.46711V1.44541C20.4996 1.19893 20.5575 0.955572 20.6706 0.736492C20.7837 0.517412 20.9485 0.329203 21.1507 0.188014C21.3267 0.0678791 21.5349 0.00355993 21.7481 0.00355993C21.9612 0.00355993 22.1694 0.0678791 22.3454 0.188014C22.5449 0.328331 22.7076 0.514654 22.8196 0.731193C22.9317 0.947732 22.9897 1.18808 22.9889 1.43184C22.969 3.11589 22.3016 4.72774 21.1249 5.93374H10.8203C9.64359 4.72774 8.97618 3.11589 8.9562 1.43184C8.95571 1.18784 9.01421 0.947336 9.12673 0.730779C9.23924 0.514222 9.40244 0.328032 9.60244 0.188014C9.77952 0.0699448 9.98694 0.00538962 10.1998 0.00215252L10.227 0.00894122ZM11.6213 7.29695H20.4542V8.50418H11.6213V7.29695ZM11.309 9.86059H20.6904C29.6849 17.3738 32.0024 24.1748 32.0024 29.241V29.8283C32.0024 31.962 30.4914 33.9791 27.829 35.5037C24.5675 37.2179 20.9237 38.0766 17.2393 37.9994H14.7683C11.0839 38.0763 7.44021 37.2176 4.1786 35.5037C1.51759 33.9791 0.00787354 31.9633 0.00787354 29.8283V29.241C0.00787354 24.1748 2.31589 17.3724 11.3172 9.86192L11.309 9.86059ZM16.3663 16.2994C14.6219 16.304 12.918 16.825 11.4698 17.7966C10.0216 18.7681 8.89413 20.1468 8.22974 21.7582C7.56535 23.3696 7.39388 25.1416 7.73699 26.8504C8.0801 28.5592 8.92239 30.1279 10.1575 31.3586C11.3926 32.5893 12.965 33.4268 14.6762 33.7651C16.3874 34.1034 18.1606 33.9276 19.7718 33.2596C21.383 32.5916 22.7598 31.4615 23.7285 30.0121C24.6972 28.5627 25.2141 26.8589 25.2142 25.1161C25.2153 25.023 25.1973 24.9308 25.1612 24.8449C25.0908 22.5595 24.1345 20.3909 22.4941 18.7965C20.8537 17.2022 18.6575 16.3068 16.369 16.2994H16.3663ZM16.3663 17.6558C18.0844 17.659 19.7483 18.2569 21.0748 19.3477C22.4013 20.4386 23.3085 21.955 23.6419 23.6388C23.9753 25.3227 23.7144 27.07 22.9035 28.5833C22.0926 30.0966 20.7819 31.2825 19.1944 31.9389C17.6069 32.5954 15.8408 32.6819 14.1966 32.1838C12.5525 31.6858 11.1319 30.6338 10.1766 29.2071C9.22137 27.7803 8.79051 26.067 8.95737 24.3586C9.12423 22.6502 9.8785 21.0523 11.0918 19.837C12.4925 18.4429 14.3891 17.6601 16.3663 17.66V17.6558ZM13.0509 20.4054V20.419H13.0224V21.7754H14.4167C14.8734 21.7173 15.3362 21.8194 15.726 22.0644C16.1157 22.3093 16.4083 22.6818 16.5537 23.1183H13.0509V24.4747H16.5537C16.4078 24.9109 16.1152 25.2831 15.7255 25.5279C15.3359 25.7728 14.8734 25.8751 14.4167 25.8175H13.0224V26.7426L12.9817 26.7819L13.0224 26.8213V27.1739H13.3822L17.5665 31.2594L18.5168 30.2896L15.2381 27.0912C15.8973 26.9697 16.5058 26.6565 16.9875 26.1907C17.4691 25.725 17.8023 25.1275 17.9453 24.4732H19.7998V23.1168H17.9453C17.834 22.6215 17.6122 22.1578 17.2963 21.7604H19.7998V20.4039L13.0509 20.4054Z" fill="white"/>
</g>
<defs>
<clipPath id="clip0_425_180">
<rect width="32" height="38" fill="white"/>
</clipPath>
</defs>
</svg>
