<svg width="36" height="30" viewBox="0 0 36 30" fill="none" xmlns="http://www.w3.org/2000/svg">
<path d="M33.3487 20.4187C33.1684 19.0484 32.4546 17.8005 31.3575 16.9378C31.4023 15.798 31.35 14.6564 31.2011 13.5251C30.7109 9.63971 29.2376 6.33736 27.3572 4.90553C26.8842 4.5328 26.3272 4.27724 25.733 4.16032L23.4732 0.637267C23.3762 0.485556 23.2498 0.354152 23.1012 0.250581C22.9525 0.147011 22.7846 0.0733093 22.607 0.0336984C22.4293 -0.00591236 22.2455 -0.0106541 22.066 0.0197446C21.8865 0.0501432 21.7149 0.115085 21.5609 0.21085C21.3662 0.334931 21.2069 0.505978 21.0983 0.707717C20.9898 0.909457 20.9354 1.13518 20.9406 1.3634H19.5116C19.1444 1.3634 18.7922 1.50694 18.5325 1.76243C18.2728 2.01792 18.1269 2.36444 18.1269 2.72576C18.1269 3.08708 18.2728 3.4336 18.5325 3.68909C18.7922 3.94458 19.1444 4.08811 19.5116 4.08811H22.2934C22.328 4.08811 22.3571 4.07176 22.3917 4.06904L22.9456 4.94095C22.2348 5.61304 21.7065 6.44953 21.4086 7.37411L21.1455 8.09344L21.6329 8.68879C22.5298 9.80685 23.0128 11.1922 23.0024 12.6165C23.0074 13.8766 22.631 15.1097 21.9209 16.1586C21.8728 16.2418 21.8142 16.3187 21.7465 16.3875L21.6274 16.5237C21.3909 16.8368 21.1113 17.1161 20.7966 17.3534C20.2471 17.7944 19.5963 18.0966 18.901 18.2334C18.6068 18.3068 18.3043 18.342 18.0009 18.3383C17.2717 18.3238 16.5559 18.1431 15.9096 17.8105C15.2633 17.4779 14.7042 17.0025 14.2761 16.4215V12.5211C14.3246 11.7833 14.0757 11.0564 13.5832 10.4979C13.0907 9.93946 12.3945 9.59441 11.6452 9.53753H5.40032C4.65094 9.59406 3.95445 9.93902 3.46192 10.4976C2.9694 11.0561 2.72057 11.7832 2.76942 12.5211V17.8098C0.985621 19.7398 -0.00192388 22.2553 6.40306e-05 24.864V26.2264H4.04748C4.3516 27.3034 5.00597 28.2527 5.91047 28.9291C6.81496 29.6054 7.91978 29.9716 9.05587 29.9716C10.192 29.9716 11.2968 29.6054 12.2013 28.9291C13.1058 28.2527 13.7601 27.3034 14.0643 26.2264H25.7759C26.0013 27.0401 26.4275 27.7864 27.0167 28.3991C27.6058 29.0117 28.3397 29.4716 29.153 29.738C29.9664 30.0043 30.834 30.0689 31.6788 29.9259C32.5236 29.7828 33.3194 29.4367 33.9955 28.9182C34.6716 28.3997 35.207 27.7249 35.5542 26.9538C35.9014 26.1826 36.0495 25.3391 35.9855 24.498C35.9215 23.657 35.6473 22.8445 35.1873 22.1328C34.7273 21.4212 34.0957 20.8323 33.3487 20.4187ZM9.05587 27.2482C8.57783 27.2428 8.11208 27.0984 7.71725 26.8332C7.32242 26.568 7.01615 26.1938 6.83698 25.7577C6.65781 25.3216 6.61376 24.8431 6.71036 24.3824C6.80697 23.9218 7.03991 23.4995 7.37988 23.1688C7.71984 22.8381 8.15164 22.6137 8.62092 22.5239C9.0902 22.4341 9.576 22.4829 10.0172 22.6641C10.4583 22.8453 10.8352 23.1509 11.1002 23.5424C11.3653 23.9338 11.5067 24.3937 11.5068 24.864C11.5024 25.4997 11.2419 26.1078 10.7824 26.5547C10.3229 27.0017 9.702 27.2511 9.05587 27.2482ZM30.7829 27.2482C30.1368 27.2511 29.5159 27.0017 29.0564 26.5547C28.5969 26.1078 28.3364 25.4997 28.332 24.864C28.3333 24.4448 28.4473 24.0334 28.6626 23.6716C28.8778 23.3098 29.1866 23.0105 29.5575 22.8041C29.9303 22.5941 30.3519 22.4824 30.7815 22.4799C31.0656 22.4799 31.3473 22.5316 31.6123 22.6325C32.0858 22.7908 32.4968 23.0913 32.7875 23.4917C33.0781 23.892 33.2338 24.372 33.2324 24.864C33.2284 25.4996 32.9682 26.1076 32.5089 26.5546C32.0497 27.0016 31.4289 27.2511 30.7829 27.2482Z" fill="white"/>
</svg>
