<svg width="29" height="29" viewBox="0 0 29 29" fill="none" xmlns="http://www.w3.org/2000/svg">
<g clip-path="url(#clip0_425_174)">
<path d="M14.4555 0.000186436C17.3333 -0.0143897 20.1507 0.826048 22.5503 2.41491C24.9499 4.00378 26.8235 6.26948 27.9337 8.92469C29.0438 11.5799 29.3403 14.505 28.7857 17.3289C28.2311 20.1529 26.8503 22.7486 24.8184 24.7867C22.7866 26.8248 20.1952 28.2136 17.3729 28.777C14.5507 29.3403 11.6247 29.0527 8.96607 27.9508C6.30746 26.8489 4.03599 24.9822 2.43974 22.5876C0.843484 20.1929 -0.00563309 17.3781 7.43608e-05 14.5002C0.00534076 10.6639 1.52859 6.98556 4.23708 4.26871C6.94558 1.55185 10.6192 0.017275 14.4555 0.000186436ZM8.92315 6.69249V6.7148H8.87631V8.94557H11.1539C11.9063 8.84847 12.669 9.01559 13.3119 9.41838C13.9547 9.82117 14.4378 10.4346 14.6785 11.154H8.92315V13.3848H14.6785C14.4382 14.1048 13.9554 14.719 13.3126 15.1226C12.6698 15.5262 11.9068 15.6941 11.1539 15.5977H10.3687L10.3553 15.5754V15.5977H8.87631V17.1102L8.80938 17.1793L8.87631 17.2485V17.8285H9.46969L16.3382 24.5386L17.8998 22.9436L12.5236 17.6902C13.6025 17.4852 14.5975 16.9679 15.385 16.2025C16.1726 15.4371 16.7181 14.4574 16.9539 13.3848H19.9967V11.154H16.9539C16.7726 10.3391 16.4079 9.57618 15.8876 8.92326H19.9967V6.69249H8.92315Z" fill="white"/>
</g>
<defs>
<clipPath id="clip0_425_174">
<rect width="29" height="29" fill="white"/>
</clipPath>
</defs>
</svg>
