<svg width="26" height="30" viewBox="0 0 26 30" fill="none" xmlns="http://www.w3.org/2000/svg">
<path d="M5.95406 1.07143C5.95406 0.787268 6.0682 0.514746 6.27136 0.313814C6.47453 0.112882 6.75008 0 7.0374 0H8.12073C8.40805 0 8.6836 0.112882 8.88676 0.313814C9.08992 0.514746 9.20406 0.787268 9.20406 1.07143V2.14286H5.95406V1.07143ZM3.25006 4.28571C2.96274 4.28571 2.68719 4.3986 2.48403 4.59953C2.28086 4.80046 2.16673 5.07298 2.16673 5.35714V7.5H13.0001V5.35714C13.0001 5.07298 12.8859 4.80046 12.6828 4.59953C12.4796 4.3986 12.204 4.28571 11.9167 4.28571H3.25006ZM14.0834 9.64286C14.356 9.64195 14.6189 9.74269 14.8197 9.925C15.0204 10.1073 15.1444 10.3578 15.1667 10.6264V30H14.0834H13.9772H9.71973C9.43241 30 9.15686 29.8871 8.9537 29.6862C8.75053 29.4853 8.63639 29.2127 8.63639 28.9286V27.0364C8.63639 26.7523 8.52226 26.4797 8.31909 26.2788C8.11593 26.0779 7.84038 25.965 7.55306 25.965C7.26574 25.965 6.99019 26.0779 6.78703 26.2788C6.58386 26.4797 6.46973 26.7523 6.46973 27.0364V28.9286C6.46973 29.2127 6.35559 29.4853 6.15243 29.6862C5.94926 29.8871 5.67371 30 5.38639 30H1.08339C0.796077 30 0.520527 29.8871 0.317362 29.6862C0.114198 29.4853 6.10352e-05 29.2127 6.10352e-05 28.9286V10.7143C6.10352e-05 10.4301 0.114198 10.1576 0.317362 9.95667C0.520527 9.75574 0.796077 9.64286 1.08339 9.64286H14.0834ZM5.41673 16.0714C5.70405 16.0714 5.9796 15.9585 6.18276 15.7576C6.38592 15.5567 6.50006 15.2842 6.50006 15V13.9286C6.50006 13.6444 6.38592 13.3719 6.18276 13.171C5.9796 12.97 5.70405 12.8571 5.41673 12.8571C5.12941 12.8571 4.85386 12.97 4.6507 13.171C4.44753 13.3719 4.33339 13.6444 4.33339 13.9286V15C4.33339 15.2842 4.44753 15.5567 4.6507 15.7576C4.85386 15.9585 5.12941 16.0714 5.41673 16.0714ZM4.33339 20.3571C4.33339 20.6413 4.44753 20.9138 4.6507 21.1148C4.85386 21.3157 5.12941 21.4286 5.41673 21.4286C5.70405 21.4286 5.9796 21.3157 6.18276 21.1148C6.38592 20.9138 6.50006 20.6413 6.50006 20.3571V19.2857C6.50006 19.0016 6.38592 18.729 6.18276 18.5281C5.9796 18.3272 5.70405 18.2143 5.41673 18.2143C5.12941 18.2143 4.85386 18.3272 4.6507 18.5281C4.44753 18.729 4.33339 19.0016 4.33339 19.2857V20.3571ZM8.66673 20.3571C8.66673 20.6413 8.78086 20.9138 8.98403 21.1148C9.18719 21.3157 9.46274 21.4286 9.75006 21.4286C10.0374 21.4286 10.3129 21.3157 10.5161 21.1148C10.7193 20.9138 10.8334 20.6413 10.8334 20.3571V19.2857C10.8334 19.0016 10.7193 18.729 10.5161 18.5281C10.3129 18.3272 10.0374 18.2143 9.75006 18.2143C9.46274 18.2143 9.18719 18.3272 8.98403 18.5281C8.78086 18.729 8.66673 19.0016 8.66673 19.2857V20.3571ZM8.66673 15C8.66673 15.2842 8.78086 15.5567 8.98403 15.7576C9.18719 15.9585 9.46274 16.0714 9.75006 16.0714C10.0374 16.0714 10.3129 15.9585 10.5161 15.7576C10.7193 15.5567 10.8334 15.2842 10.8334 15V13.9286C10.8334 13.6444 10.7193 13.3719 10.5161 13.171C10.3129 12.97 10.0374 12.8571 9.75006 12.8571C9.46274 12.8571 9.18719 12.97 8.98403 13.171C8.78086 13.3719 8.66673 13.6444 8.66673 13.9286V15ZM17.3334 30H24.9167C25.204 30 25.4796 29.8871 25.6828 29.6862C25.8859 29.4853 26.0001 29.2127 26.0001 28.9286V22.5C26.0005 20.1278 25.1168 17.8386 23.5179 16.0703C21.919 14.3019 19.7171 13.1786 17.3334 12.915V30ZM19.5001 20.3571C19.5001 20.073 19.6142 19.8005 19.8174 19.5995C20.0205 19.3986 20.2961 19.2857 20.5834 19.2857H21.6667C21.954 19.2857 22.2296 19.3986 22.4328 19.5995C22.6359 19.8005 22.7501 20.073 22.7501 20.3571C22.7501 20.6413 22.6359 20.9138 22.4328 21.1148C22.2296 21.3157 21.954 21.4286 21.6667 21.4286H20.5834C20.2961 21.4286 20.0205 21.3157 19.8174 21.1148C19.6142 20.9138 19.5001 20.6413 19.5001 20.3571ZM20.5834 23.5714H21.6667C21.954 23.5714 22.2296 23.6843 22.4328 23.8852C22.6359 24.0862 22.7501 24.3587 22.7501 24.6429C22.7501 24.927 22.6359 25.1995 22.4328 25.4005C22.2296 25.6014 21.954 25.7143 21.6667 25.7143H20.5834C20.2961 25.7143 20.0205 25.6014 19.8174 25.4005C19.6142 25.1995 19.5001 24.927 19.5001 24.6429C19.5001 24.3587 19.6142 24.0862 19.8174 23.8852C20.0205 23.6843 20.2961 23.5714 20.5834 23.5714Z" fill="white"/>
</svg>
