<svg width="1222" height="613" viewBox="0 0 1222 613" fill="none" xmlns="http://www.w3.org/2000/svg">
<rect width="203.568" height="203.568" rx="2" transform="matrix(-1 0 0 1 1018.49 205.188)" fill="#1A1A1A"/>
<rect width="203.568" height="203.568" rx="2" transform="matrix(-1 0 0 1 1221.41 0)" fill="#1A1A1A"/>
<rect width="203.568" height="203.568" rx="2" transform="matrix(-1 0 0 1 814.919 408.756)" fill="#1A1A1A"/>
<rect width="203.568" height="203.568" rx="2" transform="matrix(-1 0 0 1 611.349 205.188)" fill="#1A1A1A"/>
<rect width="203.568" height="203.568" rx="2" transform="matrix(-1 0 0 1 203.568 205.188)" fill="#1A1A1A"/>
<rect width="203.568" height="203.568" rx="2" transform="matrix(-1 0 0 1 407.787 408.756)" fill="#1A1A1A"/>
<rect width="203.568" height="203.568" rx="2" transform="matrix(-1 0 0 1 407.787 1.62109)" fill="#1A1A1A"/>
</svg>
